# xmcd
#
# Track frame offsets:
# 150
# 21774
# 40120
# 60725
# 85556
# 108952
# 127848
# 148892
# 170007
# 194816
# 213035
# 237036
# 255670
# 273153
# 291910
# 312546
#
# Disc length: 4404 seconds
#
#
# Revision: 5
# Processed by: cddbd v1.4PL0 Copyright (c) Steve Scherf et al.
# Submitted via: FreeRIP 2.52 
#
DISCID=e4113210
DTITLE=Celine Dion - All the wat... a decade of song
DYEAR=1900
DGENRE=Blues
TTITLE0=The power of love
TTITLE1=Beauty and the beast (duet with Peabo Bryson)
TTITLE2=Because you loved me (theme from "up close and personal")
TTITLE3=It's all coming back to me now
TTITLE4=Sola otra vez
TTITLE5=Immortality
TTITLE6=To love you more
TTITLE7=My heart will go on (love theme from "Titanic")
TTITLE8=I'm your angel (Duet with R. Kelly)
TTITLE9=That's the way it is
TTITLE10=If walls could talk
TTITLE11=The first time ever I saw your face
TTITLE12=All the way (Duet with Frank Sinatra)
TTITLE13=Then you look at me
TTITLE14=I want you to need me
TTITLE15=Live for the one you love
EXTD=ID3G:   0
EXTT0=
EXTT1=
EXTT2=
EXTT3=
EXTT4=
EXTT5=
EXTT6=
EXTT7=
EXTT8=
EXTT9=
EXTT10=
EXTT11=
EXTT12=
EXTT13=
EXTT14=
EXTT15=
PLAYORDER=
